# xmcd CD database file
#
# Track frame offsets:
#	150
#	13502
#	27750
#	40680
#	52687
#	72012
#	89465
#	101165
#	115397
#	135237
#	151340
#	163977
#	178407
#	194052
#	209092
#	222645
#	238332
#	267982
#	285477
#	296595
#
# Disc length: 4082 seconds
#
# Revision: 0
# Processed by: cddbd v1.5.1PL2 Copyright (c) Steve Scherf et al.
# Submitted via: CDex 1.51
#
DISCID=330ff014
DTITLE=Various Artist - Jazz Piano Ever! Disc1
DYEAR=2004
DGENRE=Jazz
TTITLE0=THINGS AIN'T WHAT THEY USED TO BE - DUKE ELLINGTON
TTITLE1=POLKA DOTS AND MOONBEAMS - NAT KING COLE
TTITLE2=BLUE SKIES - ART TATUM
TTITLE3=WHAT'S NEW - GEORGE SHEARING
TTITLE4=A NIGHT IN TUNISIA - BUD POWELL
TTITLE5=HOT SAUCE - ELMO HOPE
TTITLE6=MY ONE AND ONLY LOVE - HANK JONES
TTITLE7=RUBY MY DEAR - THELONIOUS MONK
TTITLE8=THE GIG - HERBIE NICHOLS
TTITLE9=I CAN'T GET STARTED - JOHN LEWIS
TTITLE10=YESTERDAYS - LENNIE TRISTANO
TTITLE11=INVITATION - PAUL SMITH
TTITLE12=I HEAR MUSIC - HAMPTON HAWES
TTITLE13=TEA FOR TWO - CLAUDE WILLIAMSON
TTITLE14=THERE WILL NEVER BE ANOTHER YOU - WYNTON KELLY
TTITLE15=OPUS DE FUNK - HORACE SILVER
TTITLE16=SOFTLY AS IN A MORNING SUNRISE - SONNY CLARK
TTITLE17=I SHOULD CARE - DUKE JORDAN
TTITLE18=STELLA BY STARLIGHT - KENNY DREW
TTITLE19=AUTUMN IN NEWYORK - BOBBY TIMMONS
EXTD=YEAR: 2004
EXTT0=
EXTT1=
EXTT2=
EXTT3=
EXTT4=
EXTT5=
EXTT6=
EXTT7=
EXTT8=
EXTT9=
EXTT10=
EXTT11=
EXTT12=
EXTT13=
EXTT14=
EXTT15=
EXTT16=
EXTT17=
EXTT18=
EXTT19=
PLAYORDER=
